<?xml version="1.0" encoding="UTF-8"?>
<svg width="102px" height="122px" viewBox="0 0 102 122" version="1.1" xmlns="http://www.w3.org/2000/svg" xmlns:xlink="http://www.w3.org/1999/xlink">
    <title>RISE-logo</title>
    <defs>
        <polygon id="path-1" points="0 0.168692915 20.3783636 0.168692915 20.3783636 6.16735106 0 6.16735106"></polygon>
        <polygon id="path-3" points="0.00927272727 0.168692915 7.50279545 0.168692915 7.50279545 6.16735106 0.00927272727 6.16735106"></polygon>
    </defs>
    <g id="Symbols" stroke="none" stroke-width="1" fill="none" fill-rule="evenodd">
        <g id="Homepage-Main-Nav" transform="translate(0.000000, -16.000000)">
            <g id="RISE-logo" transform="translate(0.000000, 16.000000)">
                <g id="RISE-w:-tagline-PMS">
                    <path d="M9.58181818,78.0305328 L9.58181818,70.4114941 L1.28543182,72.2752413 L1.28543182,37.3202121 L9.58181818,36.8752652 L9.58181818,13.2280781 C9.58181818,13.2280781 28.1423409,1.77514471 51.3164318,1.77514471 C74.4909091,1.77514471 92.3922955,12.9897414 92.3922955,12.9897414 L92.3922955,29.3908713 L100.560023,28.3601421 L100.560023,59.5253843 L92.2636364,62.0132179 L92.2636364,77.3642732 L51.0278182,105.338279 L9.58181818,78.0305328" id="Fill-1" fill="#FFFFFE"></path>
                    <path d="M52.0451136,22.900837 C51.6935227,23.1322094 51.221,23.0339342 50.9899545,22.6814588 C50.7589091,22.3293704 50.8570455,21.8561791 51.2090227,21.6251936 C51.5606136,21.3938212 52.0331364,21.4917095 52.2641818,21.8441848 C52.4948409,22.1966602 52.3970909,22.6698515 52.0451136,22.900837 Z M70.4391136,27.9132607 C69.7842273,27.7418594 69.1223864,27.5847738 68.4860455,27.3588181 C67.6221364,27.0523851 66.776,26.6941061 65.9290909,26.3424046 C65.5717045,26.194218 65.2270682,26.0131439 64.8835909,25.8340044 C64.6463636,25.7098062 64.6309091,25.6448053 64.7344545,25.395635 C64.7661364,25.3198006 64.8163636,25.2520912 64.87625,25.1503338 C65.2595227,25.331021 65.6234773,25.5190594 66.0001818,25.6769188 C67.0595909,26.1214788 68.1344545,26.5192227 69.2402273,26.8426797 C70.2783864,27.1467913 71.3262045,27.3986699 72.3890909,27.5801308 C73.6845682,27.8014436 74.9900909,27.9329931 76.30875,27.8927544 C77.5528409,27.8544503 78.7691136,27.6842097 79.9506136,27.2659596 C80.8199318,26.9587528 81.5984545,26.5149666 82.2695682,25.8881719 C82.8100909,25.3836408 83.2165455,24.7808344 83.5306591,24.0449309 C83.4101136,24.0882649 83.3452045,24.1107057 83.2814545,24.1346941 C82.535,24.4140434 81.7989773,24.7251193 81.0405455,24.9657776 C80.0105,25.2927168 78.9425909,25.4881066 77.8712045,25.5952807 C76.61475,25.7214135 75.3494091,25.770938 74.0863864,25.8138851 C73.5176591,25.8332306 72.9446818,25.7690035 72.3759545,25.7183182 C71.4815227,25.6393885 70.5851591,25.5631672 69.6961364,25.4405166 C69.0617273,25.3530748 68.4335,25.2087573 67.8099091,25.0586361 C67.1395682,24.8976814 66.4761818,24.7057738 65.8135682,24.5154139 C65.5840682,24.4496392 65.365,24.3474948 65.1084545,24.2492196 C65.1714318,24.0244247 65.2278409,23.8212967 65.2861818,23.613139 C65.3700227,23.6197165 65.4187045,23.6162343 65.4631364,23.6282285 C66.2710227,23.8441245 67.0719545,24.0894256 67.8875682,24.2708866 C68.5973182,24.428746 69.3244545,24.5061281 70.0407727,24.6345823 C71.2539545,24.8527998 72.4814318,24.9216698 73.70775,24.9410153 C74.7389545,24.9572656 75.7720909,24.8794966 76.8040682,24.8322935 C77.9005682,24.7819952 78.9727273,24.5676468 80.0329091,24.2987441 C80.9505227,24.066211 81.8356818,23.7404325 82.6744773,23.2920034 C83.9904318,22.5882134 85.0525455,21.6398962 85.6328636,20.229221 C85.7592045,19.9212404 85.8391818,19.5939142 85.9639773,19.2023609 C85.8121364,19.2870943 85.7333182,19.3188209 85.6687955,19.3687324 C84.7438409,20.0841296 83.7029773,20.5902084 82.6335227,21.0378637 C81.3137045,21.5899847 79.9475227,22.0121039 78.5523636,22.3204715 C77.3932727,22.5766061 76.2249091,22.8106869 75.0488182,22.9619688 C73.7966136,23.1233105 72.5324318,23.2126868 71.2705682,23.2668542 C69.4562045,23.3450101 67.6530455,23.1960496 65.8692045,22.8408659 C65.4217955,22.7518765 65.4013182,22.7294357 65.4909545,22.2953223 C65.5048636,22.2279999 65.5400227,22.1649335 65.5674545,22.0949027 C65.6319773,22.097998 65.6798864,22.0956766 65.7266364,22.1038017 C67.0959091,22.3378824 68.4752273,22.4361577 69.8645909,22.4458304 C71.55725,22.4578247 73.2472045,22.4079132 74.9224773,22.1664812 C75.9896136,22.0121039 77.0509545,21.7962079 78.10225,21.5540021 C78.9858636,21.3504872 79.86175,21.0993824 80.7233409,20.8146164 C81.8519091,20.4416348 82.9341136,19.9490979 83.9483182,19.3242377 C85.2716136,18.5086307 86.4272273,17.5185271 87.1539773,16.1035959 C87.5604318,15.3119773 87.7474318,14.4704473 87.7528409,13.5341242 C87.6496818,13.6238874 87.5720227,13.677668 87.5121364,13.7469249 C86.9801136,14.3613386 86.3785455,14.9003047 85.7395,15.399806 C83.7953182,16.9207506 81.6027045,17.9859148 79.3169773,18.8657489 C78.3692273,19.2306054 77.3936591,19.5285264 76.4169318,19.8074887 C75.3926818,20.099606 74.3560682,20.3538061 73.3163636,20.5840178 C72.6541364,20.7306568 71.9783864,20.8266106 71.3041818,20.9055403 C70.23125,21.0305124 69.156,21.1496807 68.0780455,21.2208723 C66.9104545,21.2978674 65.7463409,21.1883718 64.58725,21.0336076 C64.4964545,21.0216134 64.4029545,21.03206 64.3079091,21.03206 C63.5251364,25.2103049 60.3739545,28.1705561 56.2676818,29.3456028 C55.743,28.334606 55.08,27.3000078 54.7450227,26.2692786 C54.3493864,25.0508979 54.4146818,23.8383208 55.7182727,22.6768159 C55.9782955,22.4450566 57.2173636,21.4998346 58.5870227,21.5048645 C57.2787955,20.0543375 55.3164545,20.0965108 53.7254091,21.0811976 C53.7254091,21.0811976 52.4882727,20.2226435 51.1978182,20.6076193 C49.5924773,21.0862274 47.9763182,22.3854724 46.3810227,23.5624537 C44.7853409,24.7390481 44.0744318,24.6299394 43.0810909,24.5780934 C42.08775,24.5262474 40.9506818,23.8646307 40.9506818,23.8646307 C40.9506818,23.8646307 41.9590909,26.5060677 44.6288636,26.5904142 C46.5745909,26.651546 48.1637045,25.9326666 48.7950227,26.7985719 C49.2408864,27.4098903 49.6685909,28.3504694 49.9776818,29.3297395 C50.0240455,29.7522456 50.0549545,30.328742 50.0190227,30.9056254 C47.3268409,31.2639043 44.6848864,31.2341122 42.2496364,29.7657874 C41.0291136,29.029884 40.0141364,28.0076668 39.2711591,26.7912206 C39.0571136,26.4410668 37.5897045,22.6063982 37.7473409,22.6063982 C37.6526818,22.6063982 37.5587955,22.5959517 37.468,22.6079459 C36.3092955,22.76271 35.1447955,22.8722056 33.9772045,22.7952105 C32.8996364,22.724019 31.8243864,22.6048506 30.7510682,22.4798785 C30.0768636,22.4009488 29.4011136,22.3049951 28.7392727,22.158356 C27.6991818,21.9281444 26.6629545,21.6739443 25.6387045,21.381827 C24.6615909,21.1028646 23.6860227,20.8049436 22.7386591,20.4400872 C20.4525455,19.560253 18.2603182,18.4950888 16.31575,16.9741442 C15.6767045,16.4746429 15.0751364,15.9356768 14.5431136,15.3212632 C14.4832273,15.2520062 14.4055682,15.1982257 14.3027955,15.1084625 C14.3078182,16.0447855 14.4948182,16.8863155 14.9016591,17.6779341 C15.6284091,19.0928653 16.7840227,20.0829689 18.1069318,20.8985759 C19.1211364,21.5234361 20.2037273,22.015973 21.3322955,22.3889546 C22.1935,22.6737206 23.0693864,22.9248255 23.953,23.1283403 C25.0046818,23.3705462 26.0656364,23.5864422 27.1331591,23.7408194 C28.8080455,23.9822515 30.498,24.0321629 32.1906591,24.0201687 C33.5804091,24.0104959 34.9593409,23.9122207 36.329,23.6781399 C36.3753636,23.6700148 36.4236591,23.6723363 36.4881818,23.669241 C36.5156136,23.7392718 36.5503864,23.8023381 36.5642955,23.8696605 C36.6543182,24.303774 36.6334545,24.3262148 36.1864318,24.4152041 C34.4022045,24.7703879 32.5990455,24.9193483 30.7846818,24.8411924 C29.5228182,24.787025 28.2586364,24.6976487 27.0068182,24.5363071 C25.8303409,24.3850251 24.6619773,24.1509444 23.5028864,23.8948097 C22.1077273,23.5864422 20.7419318,23.164323 19.4217273,22.6122019 C18.3522727,22.1645466 17.3114091,21.6584679 16.3868409,20.9430706 C16.3219318,20.8931592 16.2431136,20.8614325 16.0912727,20.7766992 C16.2160682,21.1682524 16.2960455,21.4955786 16.4227727,21.8035592 C17.0027045,23.2142344 18.0648182,24.1625517 19.3811591,24.8663416 C20.2195682,25.3151576 21.1051136,25.6405492 22.0227273,25.8730824 C23.0825227,26.1419851 24.1546818,26.3563334 25.2511818,26.4066317 C26.2831591,26.4538348 27.3162955,26.5316038 28.3478864,26.5153536 C29.5738182,26.496008 30.8012955,26.427138 32.0144773,26.2093075 C32.7311818,26.0804663 33.4583182,26.0030842 34.1680682,25.8452248 C34.9832955,25.6637639 35.7842273,25.4184627 36.5921136,25.2025667 C36.6365455,25.1905725 36.6852273,25.1940547 36.7694545,25.1874772 C36.8274091,25.395635 36.8842045,25.5987629 36.9467955,25.8235578 C36.69025,25.9218331 36.4711818,26.0239774 36.2416818,26.0901391 C35.5790682,26.280499 34.9156818,26.4720196 34.2457273,26.6329743 C33.6221364,26.7830955 32.9939091,26.9274131 32.3595,27.0148548 C31.4700909,27.1375054 30.5741136,27.2137267 29.6792955,27.2930434 C29.1105682,27.3433417 28.5375909,27.4075688 27.96925,27.3882233 C26.7062273,27.3452763 25.4405,27.2957517 24.1840455,27.169619 C23.1126591,27.0624448 22.0451364,26.8670551 21.0147045,26.5401158 C20.2562727,26.2994576 19.52025,25.9883816 18.7741818,25.7090324 C18.7100455,25.6850439 18.6455227,25.6626031 18.5245909,25.6192692 C18.8390909,26.3555596 19.2455455,26.957979 19.7860682,27.4625101 C20.4567955,28.0893049 21.2357045,28.5330911 22.1046364,28.8402979 C23.2861364,29.258548 24.5024091,29.4291754 25.7465,29.4670927 C27.0651591,29.5073313 28.3706818,29.3757818 29.6661591,29.1544691 C30.7294318,28.9730081 31.7768636,28.7211295 32.8150227,28.4170179 C33.9207955,28.0935609 34.9956591,27.695817 36.0554545,27.251257 C36.4317727,27.0933976 36.7961136,26.9053592 37.179,26.7246721 C37.2388864,26.8264295 37.2895,26.8945257 37.3207955,26.9699732 C37.4247273,27.2191435 37.4092727,27.2841444 37.1716591,27.4083427 C36.8281818,27.5878691 36.4839318,27.7685562 36.1265455,27.9171298 C35.27925,28.2684444 34.4331136,28.6267234 33.5692045,28.9331564 C32.9328636,29.159112 32.2710227,29.3161976 31.6165227,29.4875989 C31.1015,29.6222437 30.5845455,29.7599838 30.0606364,29.8466517 C29.29525,29.9731714 28.5198182,30.0373985 27.7540455,30.1608229 C26.7858182,30.3171347 25.8125682,30.302819 24.8424091,30.2579374 C24.0206136,30.2200202 23.1957273,30.1612098 22.3917045,29.9476353 C21.9740455,29.836979 21.5451818,29.7681089 21.0873409,29.6733159 C21.25,30.0188268 21.4787273,30.2788306 21.7229091,30.5233579 C22.5875909,31.3892633 23.6346364,31.8821871 24.8315909,32.1274883 C25.8971818,32.3457057 26.9585227,32.3526701 28.0229545,32.2180253 C28.8636818,32.1116249 29.7051818,31.9831707 30.5130682,31.7045952 C31.4384091,31.3853942 32.3784318,31.1041104 33.2871591,30.7435099 C34.3886818,30.3059143 35.4357273,29.746055 36.4456818,29.1239032 C36.9182045,28.8329466 37.3737273,28.5156801 37.8555227,28.1980267 C37.9154091,28.2955281 37.9791591,28.3833567 38.0255227,28.4793105 C38.0854091,28.6027349 38.0602955,28.7025578 37.944,28.7969639 C37.0441591,29.5262899 36.1072273,30.2018354 35.1100227,30.7938083 C34.1835227,31.3439948 33.2191591,31.8171861 32.2173182,32.2068049 C31.6331364,32.4339213 31.025,32.6049356 30.4187955,32.7682118 C29.8825227,32.9125294 29.3385227,33.0460134 28.7895,33.1226217 C27.8742045,33.250689 26.9519545,33.3180114 26.0262273,33.2267006 C25.9551364,33.2197362 25.8832727,33.2259268 25.7665909,33.2259268 C26.027,33.544354 26.3387955,33.751351 26.6579318,33.9324251 L34.5868864,33.0402098 C35.1243182,32.7183004 35.6435909,32.365825 36.1431591,31.9831707 C37.0097727,31.3192325 37.8211364,30.5941625 38.5590909,29.7874544 C38.6077727,29.7344477 38.6657273,29.6895661 38.7464773,29.61644 C38.8751364,29.75921 38.9991591,29.8965631 39.1347727,30.0470713 C38.5359091,30.7791057 37.8949318,31.429502 37.213,32.0427549 C36.8973409,32.3263602 36.5704773,32.5944891 36.2378182,32.8544928 L38.6815682,32.5793995 C39.0103636,32.1553458 39.3213864,31.7127204 39.6107727,31.2472672 C39.6803182,31.1354501 39.7614545,31.0305974 39.8684773,30.8773809 C40.0589545,31.0224723 40.2417045,31.1613731 40.4213636,31.2987263 C40.256,31.6171535 40.0095,32.0191534 39.6938409,32.4656479 L41.6125227,32.2497519 C41.6268182,32.231954 41.6403409,32.21493 41.6588864,32.1905546 C41.6847727,32.2052572 41.7210909,32.2195729 41.7512273,32.2342755 L61.7756818,29.9812965 C61.7246818,29.8919202 61.6752273,29.8040916 61.6338864,29.724388 C61.8139318,29.5870349 61.9962955,29.448134 62.1867727,29.3030427 C62.2941818,29.4562592 62.3749318,29.5611119 62.4444773,29.672929 C62.4904545,29.7472157 62.5406818,29.8168596 62.5878182,29.8895988 L64.0672045,29.7232273 C63.6711818,29.3278049 63.2855909,28.9188407 62.9204773,28.472733 C63.0560909,28.3222249 63.1801136,28.1848717 63.3087727,28.0421018 C63.3895227,28.1152279 63.4478636,28.1601095 63.4965455,28.2131162 C63.9563182,28.7160997 64.4531818,29.1776837 64.9658864,29.6222437 L67.2207045,29.3684305 C67.1299091,29.3165845 67.03525,29.2728637 66.9452273,29.21947 C65.9480227,28.6271103 65.0114773,27.9519517 64.11125,27.2226257 C63.9953409,27.1282196 63.9698409,27.0283967 64.0297273,26.9049723 C64.0764773,26.8090185 64.1398409,26.7211899 64.1997273,26.6236885 C64.6815227,26.9413419 65.1374318,27.2586083 65.6095682,27.5495649 C66.6199091,28.1713299 67.6665682,28.7315761 68.7680909,29.1687848 C68.7858636,29.1761361 68.8044091,29.1811659 68.8221818,29.1881303 L74.2417045,28.5783596 C73.49525,28.4607388 72.7402955,28.395351 71.995,28.2723135 C71.4707045,28.1856456 70.95375,28.0479055 70.4391136,27.9132607 L70.4391136,27.9132607 Z" id="Fill-2" fill="#D6226A"></path>
                    <path d="M59.6348409,20.6281256 L61.2768864,22.4489257 C63.3114773,16.6700327 65.3476136,10.8861098 67.3883864,5.09019263 C64.8712273,4.56631601 62.1956591,4.1325895 59.3806136,3.83157325 C58.429,8.92563498 57.4781591,14.0158276 56.5277045,19.102925 C57.7034091,19.2000395 58.8014545,19.7041837 59.6348409,20.6281256" id="Fill-3" fill="#96CFDC"></path>
                    <path d="M43.0011136,28.6452951 C44.3904773,29.482956 45.8775909,29.7615314 47.3198864,29.7855199 C47.1927727,29.1057184 47.0656591,28.4251431 46.9385455,27.7453416 C46.8898636,27.7511452 46.83925,27.7569489 46.7932727,27.7623656 C46.20175,27.8331702 45.4645682,27.9252549 44.6655682,27.8970104 C43.6896136,27.8664445 42.8898409,27.5820654 42.2349545,27.190899 C42.3782955,27.5983156 42.5220227,28.0061192 42.6653636,28.4135358 C42.7777955,28.490144 42.8848182,28.5752643 43.0011136,28.6452951" id="Fill-4" fill="#96CFDC"></path>
                    <path d="M41.684,22.7340787 C42.0216818,22.9275338 42.7414773,23.2475087 43.2271364,23.272271 L43.3843864,23.2811699 C44.1818409,23.3264384 44.5500455,23.3465577 45.6847955,22.5092837 L45.9258864,22.3301442 C44.7745227,16.1705314 43.622,10.004728 42.4667727,3.82460886 C39.6497955,4.1248513 36.9738409,4.56089927 34.4566818,5.08748426 C36.4414318,10.7274765 38.4234773,16.3601175 40.40475,21.99005 L41.684,22.7340787" id="Fill-5" fill="#96CFDC"></path>
                    <path d="M30.9809545,21.1810205 C31.9399091,21.2932245 33.0541818,21.4181965 34.1417955,21.4905488 C35.12625,21.5567104 36.1335,21.468108 37.0229091,21.3574516 L37.0526591,21.304058 L37.1415227,21.3036711 C34.7321591,16.2680328 32.3200909,11.2273647 29.9026136,6.17508927 C26.8777727,6.98953557 24.1477273,7.90844766 21.7507273,8.83006813 C24.5468409,12.9150677 27.3383182,16.9931028 30.1270909,21.0676558 C30.3875,21.1063468 30.6649091,21.144264 30.9809545,21.1810205" id="Fill-6" fill="#96CFDC"></path>
                    <path d="M48.2305455,20.6788108 C49.0956136,20.1131479 49.9830909,19.6287361 50.9037955,19.3544167 C52.0227045,19.0205131 53.0589318,19.2890288 53.7424091,19.5772771 C54.1395909,14.2119912 54.536,8.84631836 54.9385909,3.48103247 C53.6083409,3.41293624 52.2545227,3.37347139 50.8732727,3.37347139 C49.5492045,3.37347139 48.2510227,3.41061478 46.9744773,3.47368117 C47.1147273,5.35135712 47.2580682,7.22825926 47.3975455,9.1055483 C47.6846136,12.9626576 47.9600909,16.8205408 48.2305455,20.6788108" id="Fill-7" fill="#96CFDC"></path>
                    <path d="M58.6612045,22.8122345 C58.6596591,22.8122345 58.6569545,22.8122345 58.6554091,22.8122345 C57.7857045,22.8122345 56.8642273,23.4753989 56.66525,23.6533777 C55.8133182,24.4121089 55.8040455,25.0621183 56.0648409,25.8657311 C56.2580227,26.4588646 56.6015,27.0922369 56.97125,27.760818 C58.1307273,27.3181925 59.16,26.7099695 60.0362727,25.9721314 C60.4060227,24.9216698 60.7761591,23.8715951 61.1459091,22.8207466 L58.6612045,22.8122345" id="Fill-8" fill="#96CFDC"></path>
                    <path d="M90.8638409,13.9078796 C90.4631818,13.6668345 89.8782273,13.3259665 89.1263636,12.9158415 L89.1367955,13.5426363 C89.1290682,14.7095579 88.8860455,15.7433824 88.3930455,16.7025331 C88.2690227,16.9439652 88.1337955,17.177659 87.9858182,17.4047754 L87.1825682,19.9425204 C87.1443182,20.0705878 87.1072273,20.1913038 87.0685909,20.3100853 C88.3350909,19.2244148 89.5988864,18.1406789 90.8638409,17.0565561 L90.8638409,13.9078796" id="Fill-9" fill="#96CFDC"></path>
                    <path d="M68.0707045,19.9162105 C69.1459545,19.845019 70.2215909,19.7239161 71.2315455,19.6066822 C71.9003409,19.5289133 72.4215455,19.448049 72.8929091,19.3520952 C75.2964773,15.8408838 77.7012045,12.3277377 80.1101818,8.80801424 C77.7089318,7.89335816 74.9750227,6.98063663 71.9455455,6.17083326 C69.7672273,10.720899 67.5912273,15.2663219 65.4163864,19.8090364 C66.2478409,19.905764 67.1642955,19.9761816 68.0707045,19.9162105" id="Fill-10" fill="#96CFDC"></path>
                    <polyline id="Fill-11" fill="#96CFDC" points="89.0885 10.6895593 88.7558409 10.9816766 89.0885 10.6895593"></polyline>
                    <path d="M84.8261364,10.7754534 C82.8734545,13.0574507 80.9176818,15.3429301 78.9576591,17.6330525 C81.4918182,16.6549431 83.4186136,15.6176365 85.0146818,14.3694637 C85.6591364,13.8649326 86.1791818,13.3809077 86.6034091,12.8903054 C86.6860909,12.7947385 86.7819091,12.706523 86.9043864,12.6063132 L88.7558409,10.9816766 L87.5156136,12.0700554 C86.7266591,11.6696032 85.8279773,11.2327814 84.8261364,10.7754534" id="Fill-12" fill="#96CFDC"></path>
                    <path d="M14.2340227,18.9922686 C14.0837273,18.7608962 13.9450227,18.5221725 13.8182955,18.2760975 C13.3245227,17.3146253 13.0811136,16.2808008 13.0753182,15.1158138 L13.0590909,12.2194028 L13.0625682,12.8063458 C12.1445682,13.3054602 11.4398409,13.7194543 10.9823864,13.9988036 L10.9823864,17.0573299 C12.1893864,18.092702 13.3956136,19.1276872 14.6033864,20.1638332 L14.2340227,18.9922686" id="Fill-13" fill="#96CFDC"></path>
                    <path d="M15.6063864,14.4623222 C16.0344773,14.9564067 16.5541364,15.4400446 17.1978182,15.943415 C18.7992955,17.1966176 20.7342045,18.2370196 23.2853636,19.219385 C23.7412727,19.3946554 24.20375,19.5525148 24.65425,19.6968324 C22.1181591,16.733099 19.5832273,13.7709134 17.051,10.811823 C15.6550682,11.4560287 14.4546364,12.0607696 13.4759773,12.5830986 L15.3061818,14.1787169 C15.4267273,14.2785397 15.5221591,14.3655946 15.6063864,14.4623222" id="Fill-14" fill="#96CFDC"></path>
                    <path d="M61.2768864,22.4489257 C61.2332273,22.572737 61.1895682,22.6969353 61.1459091,22.8207466 L61.6137955,22.8226811 L61.2768864,22.4489257" id="Fill-15" fill="#FFFFFE"></path>
                    <polyline id="Fill-16" fill="#96CFDC" points="93.9385227 26.3621371 93.9385227 20.9956904 93.9385227 26.3621371"></polyline>
                    <polyline id="Fill-17" fill="#96CFDC" points="93.9385227 28.2603193 93.9385227 26.3621371 93.9385227 28.2603193"></polyline>
                    <path d="M84.5796364,27.415307 L90.8638409,26.7084218 L90.8638409,23.1047388 C88.7662727,24.5436584 86.6733409,25.9790958 84.5796364,27.415307" id="Fill-18" fill="#96CFDC"></path>
                    <path d="M24.22925,33.3122078 C22.8874091,32.9721136 21.7882045,32.3596345 20.8779318,31.4476868 C20.5785,31.1482181 20.2385,30.7698198 19.9842727,30.2320144 L19.3201136,28.8244346 C16.5425455,26.919288 13.7653636,25.0141414 10.9823864,23.1055126 L10.9823864,32.1108511 C13.0015227,33.0796746 15.0167955,34.0465636 17.0351591,35.0150002 L24.9053864,34.1297493 C24.8822045,34.1030525 24.8570909,34.0817725 24.8342955,34.0539149 L24.22925,33.3122078" id="Fill-19" fill="#96CFDC"></path>
                    <path d="M17.0351591,35.0153871 L17.0351591,35.0150002 C15.0167955,34.0465636 13.0015227,33.0796746 10.9823864,32.1108511 C13.0015227,33.0796746 15.0179545,34.0473374 17.0351591,35.0153871" id="Fill-20" fill="#96CFDC"></path>
                    <path d="M31.8587727,78.2363691 C29.9207727,81.0670053 27.9773636,83.9049927 26.0343409,86.7425933 L32.1752045,90.8229499 C33.5035227,88.0441597 34.8310682,85.2673041 36.1578409,82.4919961 C34.5362727,81.2620081 33.0935909,79.8316005 31.8587727,78.2363691" id="Fill-21" fill="#DADF36"></path>
                    <path d="M27.8371136,70.3236654 C23.9719318,73.6356181 20.1117727,76.9433147 16.2570227,80.2463684 L22.6026591,84.4629174 C25.1066818,81.5320715 27.61225,78.599291 30.1247727,75.6583854 C29.1577045,73.9950578 28.3888409,72.2048236 27.8371136,70.3236654" id="Fill-22" fill="#DADF36"></path>
                    <path d="M11.0163864,71.5374032 L11.0163864,76.7645621 L12.4130909,77.6927601 C16.0858636,75.1735867 19.7559318,72.6567349 23.4229091,70.1414307 L11.0163864,71.5374032" id="Fill-23" fill="#DADF36"></path>
                    <path d="M53.9966364,87.0525085 C52.9480455,87.1863794 51.8735682,87.2626008 50.7693409,87.2626008 C49.7582273,87.2626008 48.7710682,87.2026297 47.8063182,87.093134 C47.4585909,91.5673654 47.1135682,96.0419836 46.7642955,100.515828 L51.0034773,103.332149 L55.0205,100.647378 C54.7662727,97.2731324 54.5112727,93.8992741 54.2570455,90.5250289 C54.1701136,89.3673931 54.0835682,88.2101442 53.9966364,87.0525085" id="Fill-24" fill="#DADF36"></path>
                    <path d="M38.8616136,84.2605633 C37.8149545,87.2308741 36.7686818,90.2011849 35.7197045,93.1776863 L42.4972955,97.6809359 C43.1919773,93.9561499 43.8858864,90.235233 44.5797955,86.5147031 C42.5301364,86.0020468 40.6168636,85.237512 38.8616136,84.2605633" id="Fill-25" fill="#DADF36"></path>
                    <path d="M57.2405455,86.4141064 C57.9452727,90.1891907 58.6503864,93.9658227 59.3566591,97.7490321 L66.1385,93.2163773 C65.0617045,90.157851 63.9860682,87.1035806 62.9108182,84.0493103 C61.1717955,85.0630154 59.27475,85.8650806 57.2405455,86.4141064" id="Fill-26" fill="#DADF36"></path>
                    <path d="M65.5674545,82.2432127 C66.9375,85.1094447 68.3083182,87.9764504 69.6814545,90.848486 L75.8180682,86.7468493 C73.8089773,83.8101997 71.8006591,80.8750977 69.7946591,77.9427041 C68.5814773,79.5433523 67.1623636,80.9896232 65.5674545,82.2432127" id="Fill-27" fill="#DADF36"></path>
                    <path d="M90.8974545,62.5494757 L84.9095909,63.2230866 C86.9051591,63.9276503 88.8995682,64.6314403 90.8974545,65.3367779 L90.8974545,62.5494757" id="Fill-28" fill="#DADF36"></path>
                    <path d="M71.4853864,75.3829052 C74.0724773,78.4108657 76.6568636,81.4357308 79.2404773,84.4594353 L85.5691136,80.2297313 C81.6293636,76.8539384 77.68575,73.4746634 73.7390455,70.0930669 C73.1981364,71.9463675 72.4389318,73.7215122 71.4853864,75.3829052" id="Fill-29" fill="#DADF36"></path>
                    <path d="M74.3661136,67.3583845 C79.3695227,70.7906662 84.3783409,74.2268171 89.3983636,77.6707062 L90.8974545,76.6686083 L90.8974545,69.734401 C86.8425682,67.7932717 82.7911591,65.854077 78.7443864,63.9168169 L74.6925909,64.3729842 C74.647,65.3801118 74.5337955,66.3760191 74.3661136,67.3583845" id="Fill-30" fill="#DADF36"></path>
                    <path d="M27.1945909,49.5009239 C26.4145227,50.359478 25.2685682,50.5769216 24.4197273,50.6717147 C23.9955,50.7189177 23.783,50.7425193 23.3572273,50.7904961 C23.3572273,48.6137385 23.3572273,47.5218775 23.3572273,45.404704 C23.7953636,45.3555664 24.0140455,45.331191 24.45025,45.2824403 C25.0564545,45.214731 26.2634545,45.1373489 27.0149318,45.6058974 C27.4051591,45.8531331 27.9433636,46.3739144 27.9433636,47.4940199 C27.9433636,48.4663256 27.5249318,49.1376151 27.1945909,49.5009239 Z M32.5797273,46.9213926 C32.5797273,44.7415397 31.6930227,43.4550627 30.8635,42.7926722 C29.9277273,42.0451614 28.3447955,41.4439027 25.7805,41.7298294 C22.9573409,42.0447745 21.5293409,42.2045685 18.6250455,42.5311208 C18.6250455,48.9960059 18.6250455,55.460891 18.6250455,61.9253893 C20.5367727,61.7102671 21.4822045,61.6042537 23.3572273,61.3945483 C23.3572273,58.4772442 23.3572273,56.9129656 23.3572273,53.7925336 C25.5482955,56.6676644 26.6316591,58.1116139 28.7806136,60.7901943 C31.0257727,60.541024 32.1369545,60.4175996 34.3461818,60.1738461 C31.9372045,57.4113061 30.7247955,55.9166714 28.2729318,52.9479083 C29.3790909,52.5582896 30.3592955,51.8552734 31.042,51.1247867 C32.3166136,49.7346178 32.5797273,48.1579581 32.5797273,46.9213926 L32.5797273,46.9213926 Z" id="Fill-31" fill="#202C49"></path>
                    <path d="M40.4124773,40.1106096 C40.4124773,46.5754947 40.4124773,53.0403799 40.4124773,59.5048781 C42.1994091,59.3083276 43.0892045,59.2104393 44.8657045,59.0154365 C44.8657045,52.5509383 44.8657045,46.0860531 44.8657045,39.6215549 C43.0892045,39.8165577 42.1994091,39.9140592 40.4124773,40.1106096" id="Fill-32" fill="#202C49"></path>
                    <path d="M57.9873864,54.1426875 C57.0925682,54.2409627 56.3148182,54.0950975 55.5664318,53.7120562 C55.0479318,53.4485703 54.2709545,52.8612404 53.7818182,52.4151327 C52.8615,53.8103315 52.4017273,54.5032879 51.4817955,55.8644385 C52.2000455,56.5009061 53.3216591,57.2526729 54.2999318,57.6194639 C55.5077045,58.0725359 56.7174091,58.1305725 58.1029091,57.9785167 C59.3728864,57.8388421 61.8602955,57.4202051 63.5780682,55.4755936 C64.59575,54.3434939 65.2973864,52.5373964 65.2973864,50.501861 C65.2973864,49.3504158 65.0041364,47.955604 63.869,46.9798161 C63.1113409,46.3189732 62.0658409,45.9881648 61.2258864,45.7548579 C60.6459545,45.5927424 60.3561818,45.5114913 59.7774091,45.3497627 C58.4769091,44.9887754 57.8142955,44.8843096 57.3522045,44.4927563 C57.0635909,44.2582886 56.92025,43.9209028 56.92025,43.4519674 C56.92025,42.95324 57.1219318,42.4935905 57.4105455,42.1716811 C57.9286591,41.5336659 58.67975,41.3657468 59.2859545,41.2991982 C59.83575,41.2388402 61.0786818,41.1819644 62.5306364,42.3376656 C63.3323409,40.9401454 63.7341591,40.2475759 64.5389545,38.8906813 C62.2644318,37.4997385 60.1239773,37.532239 58.7948864,37.6781042 C57.0048636,37.8746547 55.39025,38.3989182 54.0402955,39.9024518 C52.8897045,41.1842858 52.3731364,42.6847242 52.3731364,44.4204041 C52.3731364,45.3609831 52.5272955,46.7387709 53.5233409,47.7288745 C54.2705682,48.4717424 55.3064091,48.7832052 56.1992955,49.0126431 C56.8333182,49.1689548 57.1505227,49.2467238 57.7853182,49.4026487 C58.3327955,49.5504485 59.5239545,49.8642328 60.0385909,50.2526908 C60.4431136,50.557963 60.7039091,50.9491294 60.7039091,51.5968173 C60.7039091,52.3315601 60.3851591,52.8918063 60.0092273,53.2535675 C59.3732727,53.8757193 58.5642273,54.0792342 57.9873864,54.1426875" id="Fill-33" fill="#202C49"></path>
                    <path d="M83.53375,39.0419632 C83.53375,37.5341736 83.53375,36.7901449 83.53375,35.3481301 C78.8545,35.874715 76.5803636,36.1281413 72.097,36.625708 C72.097,43.0905932 72.097,49.5550914 72.097,56.0199765 C76.5803636,55.5224098 78.8545,55.2689835 83.53375,54.7423985 C83.53375,53.3003836 83.53375,52.556355 83.53375,51.0489523 C80.7662273,51.3600282 79.4042955,51.5124709 76.7109545,51.8131002 C76.7109545,50.096379 76.7109545,49.2180925 76.7109545,47.4599718 C79.2717727,47.174432 80.5657045,47.0297275 83.1933636,46.734128 C83.1933636,45.1899688 83.1933636,44.4115051 83.1933636,42.8696674 C80.5657045,43.1652669 79.2717727,43.3099713 76.7109545,43.5955112 C76.7109545,42.0656676 76.7109545,41.3026804 76.7109545,39.8061112 C79.4042955,39.5058687 80.7662273,39.353426 83.53375,39.0419632" id="Fill-34" fill="#202C49"></path>
                    <polyline id="Fill-35" fill="#202C49" points="9.00304545 51.9701858 7.51245455 49.7748565 6.67868182 52.2948036 4.13293182 53.0361238 6.26875 54.6089144 6.18606818 57.2623457 8.33965909 55.7139304 10.8340227 56.6131101 10.0292273 54.0834902 11.6538864 51.9852753 9.00304545 51.9701858"></polyline>
                    <polyline id="Fill-36" fill="#202C49" points="94.8441591 43.3447933 93.3535682 41.149077 92.5197955 43.6694111 89.9740455 44.4107313 92.11025 45.983135 92.0271818 48.6369531 94.1807727 47.0885379 96.6755227 47.9877175 95.8707273 45.4580976 97.495 43.3598828 94.8441591 43.3447933"></polyline>
                    <path d="M41.7956591,68.0741686 L35.3159545,71.9765465 L31.4650682,69.2364473 L36.0523636,68.7203089 L38.5683636,68.4374774 L41.7956591,68.0741686 Z M63.18475,65.6675862 L67.9493864,65.1317154 L70.6736364,64.8248955 L73.1529318,64.5459331 C73.117,65.1704064 73.0486136,65.7855939 72.9636136,66.3957515 C72.9033409,66.8259958 72.8392045,67.2543056 72.7549773,67.6768117 L66.0596818,71.8132703 L59.1317955,67.5162439 L59.1630909,66.1202713 L63.18475,65.6675862 Z M65.5659091,80.1024377 L65.5632045,80.1070807 C65.3263636,80.3160123 65.0829545,80.5175926 64.8376136,80.7164645 C64.0509773,81.3537058 63.2202955,81.9360059 62.3525227,82.4641386 C60.9716591,83.3045078 59.4972955,84.0052025 57.9421818,84.5344959 L57.9417955,84.5344959 L56.7622273,83.8523729 L51.3237727,80.7083394 L51.3164318,72.8409042 L52.8638182,71.9463675 L54.3764318,71.072337 L58.7067955,68.569027 L65.5659091,72.7913797 L65.5659091,80.1024377 Z M42.7692955,68.7566785 L48.9654091,72.1475608 L50.2037045,72.8254278 L50.1735682,80.8015848 L43.5965,84.5344959 C43.0741364,84.3572909 42.56375,84.1549368 42.0591591,83.9409754 C41.1998864,83.5753451 40.3220682,83.0940286 39.4639545,82.5511934 C38.6004318,82.0044891 37.7600909,81.3954922 36.9784773,80.7752749 C36.5152273,80.40771 36.0709091,80.036663 35.6594318,79.6729673 L35.9229318,72.8749523 L42.7051591,68.7953695 L42.7692955,68.7566785 Z M11.0163864,71.5374032 L23.4229091,70.1414307 L27.6501136,69.6659178 C27.7084545,69.8868436 27.7729773,70.1050611 27.8371136,70.3236654 C28.3888409,72.2048236 29.1577045,73.9950578 30.1247727,75.6583854 C30.6471364,76.5564043 31.2251364,77.4180537 31.8587727,78.2363691 C33.0935909,79.8316005 34.5362727,81.2620081 36.1578409,82.4919961 C37.0109318,83.1392971 37.9123182,83.7320438 38.8616136,84.2605633 C40.6168636,85.237512 42.5301364,86.0020468 44.5797955,86.5147031 C45.6210455,86.7747068 46.6982273,86.9677751 47.8063182,87.093134 C48.7710682,87.2026297 49.7582273,87.2626008 50.7693409,87.2626008 C51.8735682,87.2626008 52.9480455,87.1863794 53.9966364,87.0525085 C55.1120682,86.9101254 56.1942727,86.6965509 57.2405455,86.4141064 C59.27475,85.8650806 61.1717955,85.0630154 62.9108182,84.0493103 C63.8435,83.5057012 64.7298182,82.9017342 65.5674545,82.2432127 C67.1623636,80.9896232 68.5814773,79.5433523 69.7946591,77.9427041 C70.4128409,77.1270971 70.9753864,76.2704776 71.4853864,75.3829052 C72.4389318,73.7215122 73.1981364,71.9463675 73.7390455,70.0930669 C74.0006136,69.1977563 74.2084773,68.2846479 74.3661136,67.3583845 C74.5337955,66.3760191 74.647,65.3801118 74.6925909,64.3729842 L78.7443864,63.9168169 L84.9095909,63.2230866 L90.8974545,62.5494757 L90.8974545,76.6686083 L51.0034773,103.332149 L11.0163864,76.7645621 L11.0163864,71.5374032 Z M1.28543182,72.6323595 L5.99520455,72.1022923 L7.94054545,71.8833011 L7.94054545,78.4162824 L50.8288409,106.910682 L51.0100455,107.030625 L93.9725227,78.3156857 L93.9725227,62.2035778 L100.560023,61.4622576 L100.560023,58.3631056 L1.28543182,69.5332076 L1.28543182,72.6323595 L1.28543182,72.6323595 Z" id="Fill-37" fill="#202C49"></path>
                    <path d="M90.8638409,17.0565561 L90.8638409,26.7084218 L34.5868864,33.0402098 L34.3307273,33.0692281 L10.9823864,35.6963494 L10.9823864,13.9988036 C11.4398409,13.7194543 12.1445682,13.3054602 13.0625682,12.8063458 L13.0590909,12.2194028 L13.4759773,12.5830986 C14.4546364,12.0607696 15.6550682,11.4560287 17.051,10.811823 C18.428,10.1765162 20.0001136,9.50329214 21.7507273,8.83006813 C24.1477273,7.90844766 26.8777727,6.98953557 29.9026136,6.17508927 C31.3545682,5.78430981 32.8745227,5.41867952 34.4566818,5.08748426 C36.9738409,4.56089927 39.6497955,4.1248513 42.4667727,3.82460886 C43.9318636,3.66829708 45.4355909,3.54990251 46.9744773,3.47368117 C48.2510227,3.41061478 49.5492045,3.37347139 50.8732727,3.37347139 C52.2545227,3.37347139 53.6083409,3.41293624 54.9385909,3.48103247 C56.4542955,3.55880145 57.9356136,3.67719602 59.3806136,3.83157325 C62.1956591,4.1325895 64.8712273,4.56631601 67.3883864,5.09019263 C68.9709318,5.41945335 70.4928182,5.78237526 71.9455455,6.17083326 C74.9750227,6.98063663 77.7089318,7.89335816 80.1101818,8.80801424 C81.8658182,9.47659533 83.4460455,10.1455633 84.8261364,10.7754534 C85.8279773,11.2327814 86.7266591,11.6696032 87.5156136,12.0700554 L88.7558409,10.9816766 L89.0885,10.6895593 L89.1263636,12.9158415 C89.8782273,13.3259665 90.4631818,13.6668345 90.8638409,13.9078796 L90.8638409,17.0565561 Z M93.9385227,26.3621371 L93.9385227,12.2298494 L93.2558182,11.7725214 C93.0104773,11.6080845 90.7857955,10.1444026 86.9318182,8.31509044 C85.4875909,7.6298722 83.8119318,6.89435562 81.9260909,6.15535684 C79.4158864,5.1710569 76.5374773,4.18288785 73.3171364,3.30537516 C71.7658864,2.88248215 70.1323409,2.48822049 68.4304091,2.12994151 C65.7741591,1.57046913 62.9444318,1.10346833 59.9505,0.781945828 C58.39925,0.615187465 56.8035682,0.489054689 55.1688636,0.406255873 C53.7655909,0.335064368 52.3348864,0.29405187 50.8732727,0.29405187 C49.4684545,0.29405187 48.0941591,0.333903637 46.7434318,0.400452218 C45.0863182,0.482090303 43.4674545,0.606288527 41.8965,0.774981441 C38.9014091,1.09650395 36.0716818,1.56621312 33.4154318,2.12878077 C31.7142727,2.48899431 30.0834318,2.88635125 28.5329545,3.31233955 C25.3184091,4.19488207 22.44425,5.18924168 19.9379091,6.18127983 C18.0590227,6.92492154 16.3895455,7.66469414 14.9487955,8.35532912 C11.0666136,10.215981 8.82725,11.7098419 8.58152273,11.8766003 L7.90654545,12.3335414 L7.90654545,36.0422472 L1.28543182,36.7874366 L1.28543182,39.8865885 L100.560023,28.7172604 L100.560023,25.6173346 L93.9385227,26.3621371 L93.9385227,26.3621371 Z" id="Fill-38" fill="#202C49"></path>
                    <g id="Group-43" transform="translate(0.000000, 114.912375)">
                        <mask id="mask-2" fill="white">
                            <use xlink:href="#path-1"></use>
                        </mask>
                        <g id="Clip-40"></g>
                        <polyline id="Fill-39" fill="#D6226A" mask="url(#mask-2)" points="0 0.267741966 4.88827273 0.267741966 4.88827273 1.21219014 2.97770455 1.21219014 2.97770455 6.09151663 1.94340909 6.09151663 1.94340909 1.21219014 0 1.21219014 0 0.267741966"></polyline>
                        <path d="M9.60229545,5.27977871 C10.727,5.27977871 11.6040455,4.37672994 11.6040455,3.19239734 C11.6040455,1.99916581 10.7683409,1.09611704 9.60229545,1.09611704 C8.45247727,1.09611704 7.60015909,1.99916581 7.60015909,3.19239734 C7.60015909,4.36009279 8.47720455,5.27977871 9.60229545,5.27977871 Z M9.59340909,0.168692915 C11.3969545,0.168692915 12.7040227,1.43621124 12.7040227,3.17537329 C12.7040227,4.89015998 11.3722273,6.18282748 9.59340909,6.18282748 C7.81575,6.18282748 6.49168182,4.89867201 6.49168182,3.17537329 C6.49168182,1.49386088 7.84820455,0.168692915 9.59340909,0.168692915 L9.59340909,0.168692915 Z" id="Fill-41" fill="#D6226A" mask="url(#mask-2)"></path>
                        <path d="M20.3783636,3.03453792 L20.3783636,5.52778824 C20.3783636,5.52778824 19.5098182,6.19056568 18.1285682,6.19056568 C16.1592727,6.19056568 14.8525909,4.89867201 14.8525909,3.17537329 C14.8525909,1.49386088 16.2674545,0.168692915 17.9875455,0.168692915 C19.2861136,0.168692915 20.0391364,0.640723548 20.0391364,0.640723548 L19.6832955,1.51862314 C19.6832955,1.51862314 18.9306591,1.13790335 18.1610227,1.13790335 C16.7967727,1.13790335 15.9610682,1.99916581 15.9610682,3.19239734 C15.9610682,4.36009279 16.8543409,5.22135524 18.0621136,5.22135524 C18.5995455,5.22135524 19.0712955,5.10605596 19.3854091,4.98998285 L19.3854091,3.95383692 L17.7646136,3.95383692 L17.7646136,3.03453792 L20.3783636,3.03453792" id="Fill-42" fill="#D6226A" mask="url(#mask-2)"></path>
                    </g>
                    <polyline id="Fill-44" fill="#D6226A" points="22.9743409 115.180117 26.7541364 115.180117 26.7541364 116.124566 23.99975 116.124566 23.99975 117.75694 26.4975909 117.75694 26.4975909 118.667727 23.99975 118.667727 23.99975 120.059444 26.7541364 120.059444 26.7541364 121.003892 22.9743409 121.003892 22.9743409 115.180117"></polyline>
                    <polyline id="Fill-45" fill="#D6226A" points="28.6971591 115.180117 33.5854318 115.180117 33.5854318 116.124566 31.6744773 116.124566 31.6744773 121.003892 30.6405682 121.003892 30.6405682 116.124566 28.6971591 116.124566 28.6971591 115.180117"></polyline>
                    <polyline id="Fill-46" fill="#D6226A" points="39.6223636 118.709127 36.7849091 118.709127 36.7849091 121.003892 35.7595 121.003892 35.7595 115.180117 36.7849091 115.180117 36.7849091 117.797953 39.6223636 117.797953 39.6223636 115.188629 40.6477727 115.188629 40.6477727 121.003892 39.6223636 121.003892 39.6223636 118.709127"></polyline>
                    <polyline id="Fill-47" fill="#D6226A" points="43.55825 115.180117 47.3380455 115.180117 47.3380455 116.124566 44.5836591 116.124566 44.5836591 117.75694 47.0815 117.75694 47.0815 118.667727 44.5836591 118.667727 44.5836591 120.059444 47.3380455 120.059444 47.3380455 121.003892 43.55825 121.003892 43.55825 115.180117"></polyline>
                    <path d="M51.0425,116.124566 L51.0425,118.403081 L51.8036364,118.403081 C52.7625909,118.403081 53.0937045,117.889264 53.0937045,117.251636 C53.0937045,116.613233 52.7710909,116.124566 51.8036364,116.124566 L51.0425,116.124566 Z M50.0170909,115.180117 L51.8782045,115.180117 C53.4244318,115.180117 54.2021818,116.033255 54.2021818,117.251636 C54.2021818,117.855603 53.8961818,118.709127 53.1188182,119.090234 C53.5569545,119.470953 53.6809773,120.076081 54.3756591,120.076081 L54.6074773,120.076081 L54.6074773,120.986868 C54.6074773,120.986868 54.3922727,121.03678 54.0530455,121.03678 C52.6057273,121.03678 52.6880227,119.7031 51.9856136,119.305356 C51.8863182,119.313868 51.7874091,119.313868 51.6792273,119.313868 L51.0425,119.313868 L51.0425,121.003892 L50.0170909,121.003892 L50.0170909,115.180117 L50.0170909,115.180117 Z" id="Fill-48" fill="#D6226A"></path>
                    <polyline id="Fill-49" fill="#D6226A" points="66.5248636 121.078566 66.1690227 121.078566 64.3658636 117.143301 62.5874318 121.078566 62.2400909 121.078566 60.4114318 115.180117 61.5450227 115.180117 62.645 118.891362 64.2082273 115.122468 64.5478409 115.122468 66.1276818 118.883236 67.2199318 115.180117 68.3361364 115.180117 66.5248636 121.078566"></polyline>
                    <polyline id="Fill-50" fill="#D6226A" points="70.6504545 115.180117 74.43025 115.180117 74.43025 116.124566 71.6758636 116.124566 71.6758636 117.75694 74.1737045 117.75694 74.1737045 118.667727 71.6758636 118.667727 71.6758636 120.059444 74.43025 120.059444 74.43025 121.003892 70.6504545 121.003892 70.6504545 115.180117"></polyline>
                    <path d="M82.1045909,116.124566 L82.1045909,118.403081 L82.8657273,118.403081 C83.8250682,118.403081 84.1561818,117.889264 84.1561818,117.251636 C84.1561818,116.613233 83.8335682,116.124566 82.8657273,116.124566 L82.1045909,116.124566 Z M81.0791818,115.180117 L82.9402955,115.180117 C84.4865227,115.180117 85.2646591,116.033255 85.2646591,117.251636 C85.2646591,117.855603 84.9582727,118.709127 84.1809091,119.090234 C84.6194318,119.470953 84.7430682,120.076081 85.4381364,120.076081 L85.6695682,120.076081 L85.6695682,120.986868 C85.6695682,120.986868 85.4543636,121.03678 85.1155227,121.03678 C83.6678182,121.03678 83.7505,119.7031 83.0473182,119.305356 C82.9480227,119.313868 82.8491136,119.313868 82.7413182,119.313868 L82.1045909,119.313868 L82.1045909,121.003892 L81.0791818,121.003892 L81.0791818,115.180117 L81.0791818,115.180117 Z" id="Fill-51" fill="#D6226A"></path>
                    <g id="Group-55" transform="translate(88.090909, 114.912375)">
                        <mask id="mask-4" fill="white">
                            <use xlink:href="#path-3"></use>
                        </mask>
                        <g id="Clip-53"></g>
                        <polygon id="Fill-52" fill="#D6226A" mask="url(#mask-4)" points="0.00927272727 6.09151663 1.03468182 6.09151663 1.03468182 0.267741966 0.00927272727 0.267741966"></polygon>
                        <path d="M5.41875,6.19056568 C4.73140909,6.19056568 4.04484091,5.95919329 3.51552273,5.63612314 L3.87175,4.70831211 C4.35122727,5.03138226 4.93038636,5.22986727 5.45120455,5.22986727 C6.13777273,5.22986727 6.45265909,4.89015998 6.45265909,4.51756531 C6.45265909,4.12833349 6.23706818,3.89618728 5.18693182,3.50695546 C4.05334091,3.09296138 3.66465909,2.55399525 3.66465909,1.85833044 C3.66465909,0.98004393 4.37595455,0.168692915 5.61695455,0.168692915 C6.23706818,0.168692915 6.84906818,0.350927692 7.22152273,0.56604985 L6.89079545,1.47761065 C6.55118182,1.28686384 6.03886364,1.08799192 5.59184091,1.08799192 C4.98022727,1.08799192 4.69856818,1.42769921 4.69856818,1.83318126 C4.69856818,2.20616285 5.01306818,2.43830906 5.83215909,2.73623003 C7.13034091,3.24153496 7.50279545,3.75535191 7.50279545,4.51756531 C7.50279545,5.55293742 6.71693182,6.19056568 5.41875,6.19056568" id="Fill-54" fill="#D6226A" mask="url(#mask-4)"></path>
                    </g>
                    <polyline id="Fill-56" fill="#D6226A" points="98.0656591 115.180117 101.845455 115.180117 101.845455 116.124566 99.0910682 116.124566 99.0910682 117.75694 101.588909 117.75694 101.588909 118.667727 99.0910682 118.667727 99.0910682 120.059444 101.845455 120.059444 101.845455 121.003892 98.0656591 121.003892 98.0656591 115.180117"></polyline>
                </g>
            </g>
        </g>
    </g>
</svg>